<?xml version="1.0" encoding="utf-8"?>
<!-- Generator: Adobe Illustrator 16.0.0, SVG Export Plug-In . SVG Version: 6.00 Build 0)  -->
<!DOCTYPE svg PUBLIC "-//W3C//DTD SVG 1.1//EN" "http://www.w3.org/Graphics/SVG/1.1/DTD/svg11.dtd">
<svg version="1.1" xmlns="http://www.w3.org/2000/svg" xmlns:xlink="http://www.w3.org/1999/xlink" x="0px" y="0px" width="865px"
	 height="866px" viewBox="0 0 865 866" enable-background="new 0 0 865 866" xml:space="preserve">
<g id="Layer_1" display="none">
	<rect y="0.067" display="inline" fill="#FFFFFF" width="865" height="866"/>
	<circle display="inline" fill="#ED4F2E" cx="433.037" cy="432.773" r="430"/>
	<circle display="inline" fill="#FFFFFF" cx="431.244" cy="436.008" r="303.529"/>
	<g display="inline">
		<path fill="#FFFFFF" d="M47.156,458.802l44.569-19.839l-0.015-0.281c-3.588,0.52-7.862,0.912-12.822,1.177L46.239,441.6
			l-0.294-5.511l51.325-2.738l0.479,8.987L56.279,460.85l0.015,0.281l43.212,14.137l0.476,8.917l-51.325,2.738l-0.318-5.97
			l33.07-1.764c3.791-0.202,7.919-0.258,12.384-0.167l-0.015-0.281l-46.364-15.13L47.156,458.802z"/>
		<path fill="#FFFFFF" d="M60.238,544.748l14.533-9.85l-4.549-20.095l-17.341-2.563l-1.335-5.896l54.822,8.427l1.108,4.901
			l-45.873,31.11L60.238,544.748z M79.606,531.893l14.213-9.345c1.795-1.198,4.03-2.522,6.707-3.969
			c-2.309-0.007-4.884-0.181-7.724-0.522l-16.868-2.383L79.606,531.893z"/>
		<path fill="#FFFFFF" d="M100.998,580.117l6.499,16.219l-23.203,9.296c-1.817-2.2-3.455-4.524-4.914-6.97s-2.878-5.386-4.255-8.823
			c-2.893-7.224-2.998-13.709-0.314-19.455c2.685-5.747,7.899-10.171,15.646-13.273c4.96-1.987,9.705-2.733,14.233-2.237
			c4.529,0.496,8.527,2.221,11.996,5.174c3.468,2.952,6.208,6.942,8.223,11.968c2.039,5.091,3.004,10.208,2.894,15.354l-5.759-0.192
			c0.102-5.041-0.645-9.55-2.239-13.531c-2.327-5.811-5.874-9.653-10.642-11.531c-4.767-1.877-10.217-1.588-16.353,0.871
			c-6.44,2.58-10.695,6.107-12.764,10.586c-2.069,4.477-1.884,9.762,0.556,15.854c1.326,3.307,3,6.385,5.026,9.235l14.686-5.884
			l-4.275-10.672L100.998,580.117z"/>
		<path fill="#FFFFFF" d="M108.568,652.671L93.9,628.058l44.154-26.312l14.667,24.613l-4.56,2.717l-11.609-19.479l-14.224,8.478
			l10.906,18.301l-4.53,2.7l-10.906-18.302l-16.248,9.682l11.608,19.479L108.568,652.671z"/>
		<path fill="#FFFFFF" d="M147.964,702.947l-4.397-5.212l14.855-49.287l-0.183-0.215c-3.627,3.552-7.054,6.687-10.276,9.407
			l-22.33,18.84l-3.559-4.219l39.283-33.145l4.353,5.158l-14.766,49.12l0.182,0.214c0.453-0.443,1.939-1.836,4.458-4.174
			c2.518-2.34,4.356-3.969,5.516-4.885l22.544-19.021l3.604,4.272L147.964,702.947z"/>
		<path fill="#FFFFFF" d="M179.165,731.613l-4.549-3.876l29.893-35.081L192.12,682.1l3.442-4.041l29.328,24.991l-3.443,4.04
			l-12.389-10.557L179.165,731.613z"/>
		<path fill="#FFFFFF" d="M259.323,754.996c-4.249,7.045-9.373,11.508-15.368,13.394c-5.995,1.884-12.165,0.914-18.506-2.912
			c-6.482-3.91-10.289-8.908-11.42-14.999c-1.131-6.087,0.483-12.744,4.842-19.969c4.321-7.164,9.438-11.653,15.35-13.465
			c5.912-1.812,12.118-0.758,18.62,3.164c6.321,3.814,10.047,8.8,11.178,14.957C265.149,741.322,263.584,747.932,259.323,754.996z
			 M224.254,733.839c-3.597,5.96-5.055,11.247-4.374,15.858c0.68,4.612,3.438,8.377,8.275,11.295
			c4.877,2.942,9.484,3.629,13.826,2.06c4.341-1.569,8.314-5.345,11.923-11.325c3.571-5.92,5.041-11.157,4.409-15.713
			c-0.633-4.556-3.376-8.299-8.233-11.229c-4.877-2.942-9.514-3.639-13.91-2.09C231.771,724.245,227.8,727.959,224.254,733.839z"/>
		<path fill="#FFFFFF" d="M346.291,760.478l-10.01,31.715c-1.765,5.588-4.838,9.447-9.221,11.578
			c-4.385,2.133-9.526,2.266-15.426,0.403c-5.901-1.862-9.959-4.913-12.173-9.15c-2.214-4.238-2.432-9.173-0.653-14.806
			l9.967-31.581l5.699,1.799l-10.094,31.984c-1.291,4.09-1.165,7.582,0.379,10.478c1.543,2.896,4.482,5.028,8.82,6.397
			c4.133,1.305,7.666,1.209,10.596-0.287s5.045-4.3,6.342-8.413l10.074-31.916L346.291,760.478z"/>
		<path fill="#FFFFFF" d="M387.211,804.947c-0.585,4.484-2.669,7.77-6.25,9.854c-3.582,2.086-8.162,2.765-13.739,2.036
			c-6.043-0.79-10.588-2.175-13.638-4.156l0.746-5.717c1.976,1.157,4.162,2.151,6.56,2.983c2.396,0.832,4.802,1.408,7.22,1.723
			c3.951,0.516,7.023,0.155,9.218-1.083s3.466-3.192,3.815-5.866c0.23-1.766,0.065-3.259-0.497-4.479
			c-0.562-1.221-1.611-2.414-3.147-3.584c-1.538-1.17-3.924-2.581-7.16-4.232c-4.519-2.314-7.644-4.768-9.373-7.356
			c-1.73-2.591-2.351-5.757-1.862-9.498c0.513-3.927,2.396-6.86,5.652-8.8c3.254-1.938,7.311-2.591,12.167-1.957
			c5.066,0.662,9.604,2.2,13.615,4.615l-2.521,4.918c-3.977-2.315-7.951-3.733-11.925-4.252c-3.138-0.409-5.678-0.056-7.62,1.062
			c-1.942,1.116-3.069,2.872-3.382,5.265c-0.23,1.767-0.094,3.257,0.409,4.469s1.466,2.39,2.889,3.532s3.651,2.492,6.687,4.047
			c5.097,2.604,8.507,5.129,10.232,7.576C387.031,798.494,387.667,801.46,387.211,804.947z"/>
		<path fill="#FFFFFF" d="M436.129,819.34l-28.651,0.199l-0.355-51.398l28.651-0.198l0.036,5.31l-22.675,0.157l0.114,16.558
			l21.305-0.147l0.036,5.273l-21.304,0.147l0.131,18.914l22.675-0.158L436.129,819.34z"/>
		<path fill="#FFFFFF" d="M461.744,795.707l2.823,21.188l-5.924,0.789l-6.788-50.948l13.975-1.861
			c6.25-0.832,11.027-0.25,14.331,1.744c3.303,1.995,5.276,5.397,5.917,10.206c0.897,6.738-1.911,11.746-8.426,15.026l16.885,21.053
			l-7.004,0.933l-15.159-19.544L461.744,795.707z M461.067,790.62l8.12-1.082c4.182-0.558,7.138-1.796,8.867-3.718
			c1.73-1.921,2.375-4.543,1.933-7.864c-0.449-3.368-1.767-5.664-3.95-6.887c-2.186-1.223-5.473-1.542-9.862-0.957l-7.702,1.026
			L461.067,790.62z"/>
		<path fill="#FFFFFF" d="M567.508,793.1l-27.283,8.749l-15.695-48.943l27.283-8.749l1.621,5.056l-21.592,6.924l5.056,15.769
			l20.287-6.507l1.61,5.022l-20.286,6.505l5.774,18.011l21.594-6.924L567.508,793.1z"/>
		<path fill="#FFFFFF" d="M619.35,770.939l-6.183,2.796l-21.903-14.902l-3.498,26.392L582,787.832l4.499-31.513l-24.623-15.797
			l6.022-2.724l20.016,13.288l3.336-23.85l5.797-2.622l-4.485,28.729L619.35,770.939z"/>
		<path fill="#FFFFFF" d="M644.317,713.892c2.719,4.437,3.296,8.776,1.732,13.021c-1.564,4.243-5.164,8.091-10.8,11.544
			l-5.156,3.159l10.561,17.236l-5.095,3.123l-26.854-43.826l11.361-6.961C631.017,704.477,639.101,705.379,644.317,713.892z
			 M627.412,737.238l4.586-2.81c4.516-2.768,7.338-5.499,8.461-8.195c1.125-2.695,0.702-5.651-1.27-8.87
			c-1.775-2.896-4.048-4.474-6.815-4.729c-2.769-0.256-6.161,0.848-10.177,3.31l-5.696,3.488L627.412,737.238z"/>
		<path fill="#FFFFFF" d="M703.499,713.826l-22.229,18.077l-32.428-39.88l22.23-18.077l3.35,4.119l-17.594,14.306l10.446,12.848
			l16.529-13.441l3.328,4.092l-16.53,13.44l11.933,14.675l17.594-14.307L703.499,713.826z"/>
		<path fill="#FFFFFF" d="M708.693,679.049l15.759,14.442l-4.038,4.405l-37.894-34.726l9.524-10.394
			c4.26-4.648,8.297-7.266,12.111-7.855s7.511,0.754,11.088,4.031c5.012,4.594,6.069,10.236,3.177,16.932l26.458,5.314l-4.773,5.211
			l-24.168-5.267L708.693,679.049z M704.908,675.581l5.535-6.038c2.85-3.111,4.322-5.958,4.417-8.542
			c0.096-2.583-1.093-5.007-3.563-7.271c-2.506-2.296-4.988-3.212-7.448-2.748c-2.459,0.463-5.186,2.329-8.179,5.595l-5.25,5.728
			L704.908,675.581z"/>
		<path fill="#FFFFFF" d="M756.236,655.386l-41.912-29.752l3.46-4.874l41.912,29.753L756.236,655.386z"/>
		<path fill="#FFFFFF" d="M787.128,604.293l-13.634,25.201l-45.208-24.456l13.634-25.2l4.669,2.524L735.8,602.307l14.563,7.88
			l10.138-18.739l4.638,2.51l-10.137,18.738l16.635,8.999l10.791-19.944L787.128,604.293z"/>
		<path fill="#FFFFFF" d="M809.65,544.057l-2.137,6.477l-49.768,13.153l-0.09,0.269c4.926,1.23,9.391,2.507,13.397,3.828
			l27.743,9.157l-1.73,5.241l-48.808-16.109l2.114-6.41l49.58-13.143l0.086-0.267c-0.614-0.153-2.578-0.691-5.891-1.612
			c-3.312-0.919-5.661-1.634-7.049-2.141l-28.011-9.246l1.753-5.307L809.65,544.057z"/>
		<path fill="#FFFFFF" d="M772.222,489.295c-0.812,5.589,0.407,10.271,3.659,14.049s8.114,6.137,14.585,7.076
			c6.657,0.969,12.026,0.157,16.109-2.436c4.085-2.59,6.545-6.774,7.385-12.55c0.517-3.549,0.468-7.688-0.146-12.421l5.183,0.756
			c0.81,3.717,0.839,8.162,0.086,13.334c-1.089,7.491-4.203,12.941-9.341,16.351c-5.137,3.409-11.892,4.506-20.267,3.288
			c-5.24-0.762-9.69-2.409-13.35-4.943c-3.657-2.533-6.283-5.804-7.879-9.813s-2.03-8.521-1.302-13.529
			c0.775-5.335,2.427-9.854,4.956-13.562l4.716,3.244C774.247,481.726,772.782,485.444,772.222,489.295z"/>
		<path fill="#FFFFFF" d="M821.813,432.599l-0.246,28.652l-51.397-0.44l0.246-28.652l5.309,0.047l-0.193,22.675l16.557,0.142
			l0.183-21.305l5.273,0.045l-0.183,21.305l18.914,0.162l0.193-22.675L821.813,432.599z"/>
	</g>
	<g display="inline">
		<path fill="#FFFFFF" d="M146.707,212.651c7.018,4.77,11.088,10.319,12.211,16.651s-0.745,13.074-5.606,20.228l-8.004,11.775
			l-42.51-28.891l8.853-13.026c4.492-6.609,9.815-10.502,15.969-11.676C133.773,206.539,140.136,208.186,146.707,212.651z
			 M143.324,218.004c-5.544-3.768-10.667-5.216-15.368-4.345c-4.7,0.872-8.916,4.051-12.644,9.536l-4.881,7.182l33.961,23.081
			l4.091-6.019c4.005-5.893,5.566-11.308,4.684-16.243C152.285,226.262,149.004,221.864,143.324,218.004z"/>
		<path fill="#FFFFFF" d="M199.068,193.932l-19.654,20.848l-37.398-35.259l19.654-20.848l3.863,3.642l-15.556,16.499l12.049,11.359
			l14.614-15.502l3.837,3.617l-14.614,15.502l13.762,12.975l15.556-16.499L199.068,193.932z"/>
		<path fill="#FFFFFF" d="M210.443,118.098l20.385,26.278c3.592,4.63,5.016,9.354,4.274,14.171
			c-0.742,4.817-3.558,9.122-8.447,12.915c-4.889,3.792-9.706,5.393-14.45,4.802c-4.745-0.591-8.927-3.22-12.547-7.887
			l-20.299-26.167l4.723-3.663l20.557,26.501c2.629,3.389,5.573,5.272,8.833,5.65c3.26,0.379,6.686-0.825,10.278-3.612
			c3.426-2.658,5.357-5.617,5.795-8.878c0.437-3.26-0.666-6.595-3.31-10.002l-20.514-26.445L210.443,118.098z"/>
		<path fill="#FFFFFF" d="M276.764,122.677c2.197,3.954,2.476,7.834,0.837,11.641s-4.917,7.075-9.834,9.808
			c-5.327,2.959-9.806,4.55-13.437,4.771l-2.8-5.04c2.276-0.246,4.625-0.747,7.048-1.503c2.422-0.756,4.698-1.726,6.829-2.909
			c3.482-1.936,5.737-4.053,6.766-6.354c1.027-2.3,0.888-4.629-0.422-6.984c-0.864-1.557-1.886-2.659-3.062-3.306
			c-1.178-0.646-2.731-0.982-4.663-1.009s-4.689,0.259-8.272,0.855c-5.01,0.827-8.98,0.714-11.912-0.34
			c-2.931-1.052-5.312-3.228-7.145-6.526c-1.924-3.462-2.154-6.94-0.69-10.436c1.464-3.494,4.336-6.431,8.618-8.81
			c4.467-2.481,9.029-3.944,13.689-4.389l0.898,5.453c-4.573,0.504-8.612,1.729-12.115,3.675c-2.766,1.536-4.598,3.332-5.494,5.385
			c-0.897,2.054-0.759,4.136,0.413,6.246c0.865,1.557,1.86,2.673,2.986,3.348c1.126,0.676,2.6,1.049,4.424,1.121
			c1.823,0.073,4.417-0.168,7.782-0.724c5.646-0.938,9.89-0.937,12.731,0.005S275.057,119.604,276.764,122.677z"/>
		<path fill="#FFFFFF" d="M348.701,110.537l-27.406,8.358l-14.994-49.162l27.405-8.359l1.549,5.078l-21.689,6.615l4.831,15.838
			l20.378-6.215l1.538,5.044l-20.378,6.215l5.519,18.092l21.689-6.615L348.701,110.537z"/>
		<path fill="#FFFFFF" d="M398.979,101.662l-6.705,1.039l-17.115-20.223l-10.435,24.492l-6.253,0.97l12.77-29.159l-19.496-21.811
			l6.531-1.013l15.729,18.161l9.598-22.086l6.288-0.975l-12.012,26.48L398.979,101.662z"/>
		<path fill="#FFFFFF" d="M458.857,102.665l-12.224-47.229l-0.279-0.031c-0.078,3.624-0.396,7.904-0.952,12.842l-3.663,32.489
			l-5.485-0.618l5.759-51.075l8.943,1.008l11.425,43.956l0.279,0.031l21.064-40.292l8.874,1l-5.759,51.075l-5.938-0.67l3.71-32.908
			c0.426-3.773,1.05-7.854,1.876-12.242l-0.28-0.031l-22.563,43.236L458.857,102.665z"/>
		<path fill="#FFFFFF" d="M536.203,120.167l-1.31-17.506l-19.69-6.058l-10.855,13.765l-5.779-1.777l34.596-43.354l4.805,1.479
			l4.148,55.271L536.203,120.167z M534.694,96.972l-1.03-16.979c-0.146-2.154-0.182-4.752-0.104-7.793
			c-1.154,1.999-2.587,4.146-4.298,6.438L518.8,92.083L534.694,96.972z"/>
		<path fill="#FFFFFF" d="M593.622,94.346c-5.096-2.438-9.93-2.665-14.502-0.683c-4.573,1.982-8.271,5.924-11.093,11.822
			c-2.902,6.068-3.724,11.437-2.463,16.105c1.261,4.67,4.523,8.264,9.788,10.782c3.235,1.547,7.202,2.73,11.903,3.55l-2.261,4.726
			c-3.791-0.332-8.043-1.626-12.758-3.881c-6.829-3.268-11.107-7.86-12.836-13.779s-0.767-12.695,2.885-20.327
			c2.286-4.778,5.182-8.537,8.688-11.277c3.506-2.739,7.41-4.275,11.714-4.607c4.302-0.331,8.737,0.595,13.304,2.779
			c4.863,2.326,8.688,5.247,11.475,8.764l-4.498,3.537C600.247,98.528,597.132,96.025,593.622,94.346z"/>
		<path fill="#FFFFFF" d="M631.05,172.042l-4.937-3.369l13.636-19.979l-22.359-15.26l-13.635,19.978l-4.937-3.369l28.975-42.453
			l4.937,3.369l-12.327,18.062l22.358,15.261l12.327-18.062l4.937,3.369L631.05,172.042z"/>
		<path fill="#FFFFFF" d="M646.158,184.935l33.746-38.769l4.508,3.924l-33.746,38.769L646.158,184.935z"/>
		<path fill="#FFFFFF" d="M692.431,231.824l-4.568-5.064l13.215-49.752l-0.188-0.208c-3.509,3.669-6.828,6.917-9.961,9.742
			l-21.692,19.569l-3.697-4.099l38.164-34.428l4.521,5.012l-13.131,49.581l0.188,0.209c0.438-0.459,1.878-1.898,4.317-4.32
			s4.224-4.11,5.352-5.063l21.901-19.758l3.744,4.151L692.431,231.824z"/>
		<path fill="#FFFFFF" d="M721.489,274.556l10.268-14.24l-11.17-17.311l-17.168,3.547l-3.278-5.081l54.383-10.908l2.726,4.225
			l-32.404,44.968L721.489,274.556z M735.266,255.834l10.142-13.657c1.274-1.742,2.919-3.753,4.937-6.03
			c-2.17,0.786-4.648,1.507-7.434,2.161l-16.66,3.554L735.266,255.834z"/>
	</g>
	<g display="inline">
		<polygon fill-rule="evenodd" clip-rule="evenodd" fill="#ED4F2E" points="279.255,424.723 273.162,432.771 258.728,421.99 
			253.998,427.359 233.107,410.85 226.702,418.494 170.921,384.656 172.033,383.986 220.213,406.234 227.247,398.609 246.14,414.4 
			252.851,409.662 267.147,422.311 273.441,415.586 304.783,441.004 303.367,441.49 		"/>
		<path fill="#ED4F2E" d="M171.54,384.354l49.088,22.668l6.827-7.4l18.747,15.664l6.683-4.721l14.442,12.777l6.328-6.762
			l30.393,24.646l-25.142-17.484l-6.066,8.016l-14.386-10.74l-4.706,5.34l-20.907-16.52l-6.501,7.758L171.54,384.354
			 M172.528,383.619l-2.232,1.336l54.799,33.242l1.972,1.193l1-1.195l5.31-6.33l18.921,14.951l1.951,1.539l1.222-1.385l3.53-4.006
			l12.428,9.281l2.062,1.541l1.102-1.455l5.016-6.629l29.082,19.051l2.83-0.971l-36.393-27.646l-1.904-1.545l-1.271,1.357
			l-4.987,5.328l-12.557-11.111l-1.594-1.408l-1.499,1.061l-5.232,3.695l-17.14-14.318l-1.905-1.596l-1.29,1.393l-5.952,6.455
			L172.528,383.619L172.528,383.619z"/>
	</g>
	<g display="inline">
		<polygon fill-rule="evenodd" clip-rule="evenodd" fill="#ED4F2E" points="215.555,591.963 215.391,590.98 246.175,583.211 
			247.591,574.295 266.177,574.475 268.578,567.57 283.037,568.18 284.359,560.146 314.648,559.912 314.623,560.918 
			291.806,563.014 291.157,571.803 277.446,572.537 276.589,578.758 256.344,579.207 255.312,587.996 		"/>
		<path fill="#ED4F2E" d="M284.898,560.645l29.704-0.227l-23.384,2.146l-0.648,8.766l-13.679,0.732l-0.856,6.205l-20.255,0.449
			l-1.036,8.832l-39.214,3.912l31.21-7.875l1.392-8.779l18.501,0.178l2.396-6.887l14.544,0.611L284.898,560.645 M283.819,559.645
			l-0.156,0.949l-1.162,7.055l-13.307-0.559l-1.065-0.045l-0.299,0.854l-2.111,6.064l-17.47-0.166l-1.196-0.012l-0.157,0.975
			l-1.281,8.076l-36.363,7.664l2.33,1.965l43.214-3.914l1.086-0.109l0.104-0.881l0.922-7.861l19.06-0.422l1.176-0.027l0.133-0.953
			l0.729-5.285l12.546-0.674l1.192-0.062l0.072-0.967l0.579-7.846l22.248-2.043l0.052-2.014l-29.704,0.23L283.819,559.645
			L283.819,559.645z"/>
	</g>
	<g display="inline">
		<g>
			<polygon fill-rule="evenodd" clip-rule="evenodd" fill="#ED4F2E" points="193.64,485.139 194.062,484.199 230.994,492.653 
				232.998,483.195 250.312,488.857 253.089,481.85 266.494,486.775 268.361,478.201 296.752,486.893 296.372,487.844 
				275.127,483.512 273.834,493.141 260.999,489.93 259.709,496.631 240.814,491.184 239.152,500.781 			"/>
			<path fill="#ED4F2E" d="M268.848,478.887l27.682,8.473l-21.948-4.475l-1.288,9.596l-12.803-3.201l-1.286,6.676l-18.903-5.451
				l-1.656,9.559L193.89,484.68l37.606,8.607l1.988-9.393l17.222,5.633l2.768-6.986l13.501,4.961L268.848,478.887 M267.873,477.518
				l-0.262,1.197l-1.594,7.334l-12.02-4.416l-1.291-0.475l-0.429,1.082l-2.358,5.949l-15.96-5.219l-1.45-0.475l-0.262,1.232
				l-1.756,8.289l-36.257-8.299l-0.843,1.879l44.755,15.383l1.514,0.521l0.226-1.303l1.444-8.336l17.447,5.031l1.433,0.414
				l0.232-1.201l1.062-5.525l11.412,2.854l1.457,0.365l0.164-1.213l1.135-8.449l20.544,4.189l0.759-1.902l-27.681-8.473
				L267.873,477.518L267.873,477.518z"/>
		</g>
		<g>
			<path fill-rule="evenodd" clip-rule="evenodd" fill="#ED4F2E" d="M192.939,504.035c-0.031-0.125-3.306-12.59-7.097-14.994
				c-3.115-1.973-14.706-2.127-18.184-2.127c-1.075,0-1.729,0.014-1.729,0.014l-0.146-0.99c0.159-0.025,15.788-2.635,18.801-5.66
				c3.012-3.025,2.657-15.756,2.654-15.883l1.239-0.115c0.034,0.127,3.302,12.59,7.095,14.992c3.12,1.977,14.716,2.132,18.196,2.132
				c1.067,0,1.719-0.015,1.719-0.015l0.147,0.99c-0.16,0.025-15.789,2.633-18.804,5.658c-3.01,3.025-2.654,15.756-2.649,15.885
				L192.939,504.035z"/>
			<path fill="#ED4F2E" d="M187.865,464.381c0,0,3.302,12.738,7.317,15.283c3.211,2.033,14.275,2.239,18.586,2.239
				c1.082,0,1.738-0.015,1.738-0.015s-15.975,2.635-19.165,5.838c-3.189,3.203-2.787,16.207-2.787,16.207s-3.307-12.738-7.32-15.283
				c-3.208-2.031-14.258-2.236-18.575-2.236c-1.09,0-1.749,0.014-1.749,0.014s15.975-2.635,19.166-5.838
				C188.265,477.385,187.865,464.381,187.865,464.381 M189.092,464.18l-2.48,0.227c0.107,3.516-0.135,13.168-2.518,15.561
				c-2.385,2.395-14.118,4.77-18.438,5.48l0.287,1.98c0,0,0.653-0.014,1.717-0.014c9.01,0,15.827,0.773,17.794,2.02
				c3.002,1.902,5.978,11.258,6.872,14.703l2.483-0.227c-0.108-3.518,0.132-13.168,2.515-15.561
				c2.383-2.395,14.116-4.768,18.436-5.48l-0.284-1.98c0,0-0.65,0.015-1.706,0.015c-9.015,0-15.838-0.776-17.807-2.022
				C192.962,476.979,189.986,467.623,189.092,464.18L189.092,464.18z"/>
		</g>
	</g>
	<g display="inline">
		<path fill-rule="evenodd" clip-rule="evenodd" fill="#ED4F2E" d="M274.514,656.607c-0.076-0.104-7.512-10.441-11.252-11.412
			c-0.281-0.074-0.629-0.111-1.031-0.111c-4.535,0-14.248,4.57-14.346,4.615l-0.504-0.857c0.105-0.076,10.443-7.514,11.414-11.254
			c0.969-3.736-4.451-15.26-4.506-15.377l0.859-0.504c0.074,0.104,7.512,10.441,11.25,11.412c0.283,0.074,0.631,0.111,1.035,0.111
			c4.537,0,14.246-4.568,14.346-4.615l0.504,0.859c-0.105,0.074-10.445,7.512-11.414,11.25c-0.971,3.74,4.449,15.262,4.502,15.379
			L274.514,656.607z"/>
		<path fill="#ED4F2E" d="M254.742,621.998c0,0,7.572,10.578,11.531,11.605c0.336,0.086,0.725,0.127,1.16,0.127
			c4.703,0,14.559-4.662,14.559-4.662s-10.58,7.572-11.607,11.529c-1.027,3.959,4.535,15.719,4.535,15.719
			s-7.572-10.578-11.531-11.605c-0.334-0.088-0.725-0.127-1.158-0.127c-4.703,0-14.559,4.664-14.559,4.664
			s10.58-7.574,11.607-11.533C260.305,633.756,254.742,621.998,254.742,621.998 M255.555,621.416l-1.717,1.01
			c1.504,3.18,5.238,12.08,4.473,15.037c-0.768,2.961-8.361,8.924-11.221,10.971l1.01,1.72c0.096-0.048,9.707-4.569,14.131-4.569
			c0.359,0,0.664,0.031,0.906,0.094c2.959,0.77,8.922,8.361,10.969,11.221l1.719-1.01c-1.504-3.18-5.24-12.082-4.473-15.039
			s8.361-8.92,11.223-10.969l-1.01-1.717c-0.098,0.045-9.707,4.566-14.131,4.566c-0.361,0-0.668-0.033-0.908-0.096
			C263.564,631.867,257.602,624.275,255.555,621.416L255.555,621.416z"/>
	</g>
	<g display="inline">
		<polygon fill-rule="evenodd" clip-rule="evenodd" fill="#ED4F2E" points="550.193,489.994 550.488,489.025 578.002,492.148 
			580.037,482.561 599.263,486.975 601.17,480.352 624.794,487.232 627.243,477.895 691.67,489.426 691.466,490.406 
			637.287,486.389 634.335,495.811 612.717,488.834 608.941,495.598 589.053,489.418 586.371,497.812 		"/>
	</g>
	<g display="inline">
		<polygon fill-rule="evenodd" clip-rule="evenodd" fill="#ED4F2E" points="541.588,445.164 576.039,422.666 582.499,429.861 
			598.253,418.553 605.229,423.818 626.013,409.793 633.078,417.771 678.753,391.496 680.276,392.078 625.958,429.695 
			619.283,421.418 596.336,435.982 591.498,430.264 575.658,439.709 569.472,431.215 543.075,445.766 		"/>
		<path fill="#ED4F2E" d="M679.483,391.809l-53.235,36.867l-6.64-8.24l-22.966,14.576l-4.816-5.689l-15.779,9.41l-6.161-8.457
			l-27.522,15.172l33.407-21.816l6.495,7.238l15.917-11.426l6.95,5.246l20.617-13.912l7.006,7.914L679.483,391.809 M678.021,391.188
			l-44.618,25.67l-5.806-6.555l-1.321-1.494l-2.102,1.418l-18.845,12.719l-5.449-4.105l-1.556-1.178l-1.755,1.26l-13.843,9.932
			l-5.113-5.7l-1.303-1.452l-2.09,1.363l-33.408,21.82l2.982,1.203l25.264-13.93l5.095,6.995l1.119,1.532l2.262-1.35l13.636-8.131
			l3.611,4.27l1.252,1.477l2.14-1.359l20.783-13.193l5.417,6.725l1.288,1.596l2.178-1.506l53.23-36.863L678.021,391.188
			L678.021,391.188z"/>
	</g>
	<g display="inline">
		<path fill-rule="evenodd" clip-rule="evenodd" fill="#ED4F2E" d="M670.289,409.109c0.054-0.117,5.343-11.703,4.33-15.432
			c-1.014-3.729-11.434-11.045-11.539-11.119l0.495-0.865c0.058,0.027,5.837,2.67,10.571,3.869c2.804,0.709,4.188,0.645,4.859,0.463
			c3.726-1.014,11.045-11.434,11.117-11.539l0.865,0.494c-0.053,0.117-5.343,11.701-4.33,15.432
			c1.012,3.727,11.434,11.047,11.538,11.119l-0.495,0.863c-0.056-0.023-5.838-2.668-10.572-3.867
			c-2.805-0.711-4.189-0.645-4.857-0.463c-3.727,1.012-11.045,11.434-11.118,11.539L670.289,409.109z"/>
		<path fill="#ED4F2E" d="M690.534,374.773c0,0-5.431,11.82-4.357,15.77c1.069,3.945,11.734,11.398,11.734,11.398
			s-5.823-2.674-10.66-3.898c-2.054-0.521-3.933-0.779-5.109-0.461c-3.946,1.071-11.397,11.736-11.397,11.736
			s5.43-11.824,4.357-15.771c-1.074-3.945-11.734-11.398-11.734-11.398s5.82,2.674,10.658,3.898
			c2.055,0.521,3.933,0.779,5.109,0.461C683.081,385.436,690.534,374.773,690.534,374.773 M689.715,374.199
			c-2.016,2.885-7.893,10.545-10.844,11.342c-0.609,0.166-1.902,0.221-4.601-0.463c-4.693-1.189-10.429-3.812-10.485-3.838
			l-0.992,1.729c2.885,2.016,10.541,7.893,11.344,10.84c0.801,2.951-2.834,11.895-4.303,15.09l1.73,0.992
			c2.016-2.885,7.892-10.543,10.838-11.344c0.61-0.166,1.905-0.219,4.604,0.465c4.693,1.189,10.43,3.811,10.488,3.84l0.989-1.73
			c-2.884-2.016-10.543-7.893-11.342-10.842c-0.804-2.951,2.833-11.893,4.301-15.09L689.715,374.199L689.715,374.199z"/>
	</g>
	<g display="inline">
		<polygon fill-rule="evenodd" clip-rule="evenodd" fill="#ED4F2E" points="603.854,576.006 582.646,576.43 581.385,570.246 
			566.996,570.102 565.804,561.342 541.809,560.232 541.724,559.227 573.428,558.153 575.276,566.129 590.373,564.896 
			593.288,571.695 612.723,570.715 614.716,579.523 645.112,582.672 645.145,583.674 605.453,584.797 		"/>
		<path fill="#ED4F2E" d="M572.891,558.676l1.859,8.006l15.183-1.238l2.909,6.781l19.347-0.975l1.971,8.719l30.913,3.203
			l-39.059,1.104l-1.6-8.787l-21.218,0.426l-1.259-6.166l-14.354-0.143l-1.19-8.738l-24.593-1.139L572.891,558.676 M573.962,557.629
			l-1.226,0.041l-31.093,1.053l0.175,2.012l23.395,1.082l1.067,7.82l0.13,0.963l1.254,0.012l13.166,0.131l1.072,5.256l0.195,0.947
			l1.229-0.025l19.964-0.398l1.426,7.82l0.177,0.977l1.265-0.035l39.061-1.105l-0.067-2.004l-29.88-3.096l-1.794-7.93l-0.218-0.967
			l-1.253,0.062l-18.271,0.922l-2.561-5.973l-0.362-0.844l-1.111,0.094l-13.896,1.133l-1.625-7.006L573.962,557.629L573.962,557.629
			z"/>
	</g>
	<g display="inline">
		<path fill-rule="evenodd" clip-rule="evenodd" fill="#ED4F2E" d="M635.146,601.52c0.041-0.121,4.037-12.211,2.623-15.809
			c-1.41-3.594-12.566-9.734-12.678-9.795l0.398-0.914c0.086,0.029,8.814,2.918,13.701,2.918c0.902,0,1.611-0.1,2.105-0.295
			c3.598-1.41,9.738-12.566,9.799-12.68l0.914,0.398c-0.041,0.121-4.037,12.211-2.625,15.81s12.566,9.737,12.68,9.798l-0.398,0.914
			c-0.088-0.029-8.824-2.918-13.707-2.918c-0.898,0-1.605,0.098-2.098,0.291c-3.598,1.412-9.74,12.568-9.803,12.68L635.146,601.52z"
			/>
		<path fill="#ED4F2E" d="M651.535,565.186c0,0-4.111,12.342-2.615,16.148c1.494,3.811,12.904,10.057,12.904,10.057
			s-8.842-2.943-13.865-2.943c-0.91,0-1.697,0.096-2.281,0.326c-3.809,1.494-10.057,12.904-10.057,12.904s4.111-12.34,2.615-16.148
			c-1.494-3.807-12.904-10.053-12.904-10.053s8.834,2.943,13.859,2.943c0.914,0,1.703-0.098,2.289-0.328
			C645.289,576.598,651.535,565.186,651.535,565.186 M650.658,564.705c-1.689,3.086-6.697,11.34-9.543,12.455
			c-0.301,0.119-0.879,0.26-1.924,0.26c-4.805,0-13.457-2.863-13.543-2.893l-0.797,1.826c3.086,1.689,11.338,6.697,12.453,9.541
			c1.119,2.848-1.521,12.131-2.633,15.467l1.826,0.797c1.689-3.086,6.699-11.338,9.545-12.455c0.299-0.117,0.873-0.256,1.916-0.256
			c4.801,0,13.463,2.863,13.549,2.893l0.797-1.826c-3.086-1.689-11.338-6.697-12.455-9.545c-1.117-2.844,1.523-12.129,2.635-15.467
			L650.658,564.705L650.658,564.705z"/>
	</g>
	<g display="inline">
		<polygon fill-rule="evenodd" clip-rule="evenodd" fill="#ED4F2E" points="585.926,642.461 580.471,647.447 574.504,638.293 
			567.848,643.482 550.324,624.357 550.984,623.52 567.076,637.754 574.266,632.127 580.885,638.807 585.693,634.787 
			600.947,653.678 600.275,654.498 		"/>
		<path fill="#ED4F2E" d="M550.674,623.957l16.385,14.492l7.168-5.609l6.629,6.691l4.771-3.992l14.949,18.514l-14.664-12.303
			l-5.348,4.891l-5.945-9.117l-6.717,5.236L550.674,623.957 M551.295,623.082l-1.32,1.674l17.229,18.803l0.592,0.646l0.68-0.529
			l5.912-4.611l5.369,8.234l0.623,0.955l0.818-0.75l4.74-4.334l14.037,11.775l1.344-1.641l-14.949-18.514l-0.611-0.756l-0.73,0.611
			l-4.113,3.439l-6.018-6.074l-0.592-0.596l-0.652,0.51l-6.557,5.131L551.295,623.082L551.295,623.082z"/>
	</g>
	<g display="inline">
		<path fill-rule="evenodd" clip-rule="evenodd" fill="#FFFFFF" d="M622.438,237.502c-17.382-5.381-28.168-5.979-45.336-2.914
			c-3.662,0.654-4.398-0.32-5.182-3.371c-1.734-6.748-6.223-12.096-11.553-15.885c-8.42-5.986-18.131-9.236-28.789-8.553
			c-2.117,0.137-4.254-0.02-6.381-0.025c-2.121-0.004-3.447-0.988-4.199-3.01c-3.744-10.092-10.396-17.973-18.758-24.561
			c-11.307-8.908-24.43-13.764-38.354-16.17c-8.93-1.543-18.062-1.365-27.189-0.322c-9.592,1.096-18.641,3.711-27.375,7.611
			c-14.35,6.406-25.428,16.441-32.994,30.25c-0.742,1.357-1.502,2.209-3.127,2.078c-3.412-0.277-6.65,0.611-9.967,1.287
			c-10.52,2.145-19.939,6.557-28.305,13.197c-1.582,1.256-2.963,1.486-4.779,1.016c-4.217-1.094-41.149-16.797-64.301,20.217
			c-1.208,1.931-2.69,3.385-4.848,2.662c-33.987-11.381-59.486,18.77-59.617,36.436c-0.355,0.338,0.301,0.721-0.047,1.021
			c-19.375,16.758-10.055,44.396,18.625,58.258c26.755,12.932,58.422,13.438,85.189-1.668c2.23-1.258,3.67-1.154,5.643,0.221
			c13.529,9.43,28.814,14.6,44.748,18.068c9.012,1.963,18.162,2.91,27.344,3.914c13.332,1.457,26.477,0.172,39.588-1.223
			c11.195-1.193,22.223-4.033,32.727-8.193c10.383-4.113,20.746-8.482,29.104-16.273c1.971-1.836,3.605-1.857,5.986-0.602
			c7.783,4.094,16.27,6.461,24.92,7.158c11.174,0.898,22.383,0.352,33.314-2.891c11.188-3.316,21.504-8.203,29.254-17.109
			c2.518-2.896,4.824-4.041,8.521-3.943c16.529,0.43,54.162,1.541,64.715-30.754C662.963,253.225,634.463,241.225,622.438,237.502z"
			/>
		<path fill="#ED4F2E" d="M395.338,363.903c-4.64,0-8.926-0.223-13.103-0.679l-1.353-0.147c-8.721-0.951-17.737-1.935-26.617-3.869
			c-19.27-4.195-34.064-10.152-46.506-18.734c-13.977,7.81-29.914,11.936-46.116,11.936c-15.059,0-30.374-3.556-44.292-10.282
			c-17.981-8.69-29.915-22.946-31.923-38.133c-1.396-10.561,2.153-20.501,10.024-28.257c1.315-17.835,21.305-43.229,50.693-43.229
			c4.931,0,9.931,0.746,14.892,2.221c11.146-17.557,27.187-26.832,46.413-26.832c10.681,0,19.384,2.854,23.101,4.072
			c0.345,0.112,0.631,0.209,0.857,0.28c9.049-7.132,19.352-11.913,30.627-14.211c0.511-0.104,1.02-0.214,1.528-0.323
			c2.421-0.521,5.158-1.108,8.11-1.136c8.105-14.266,19.942-24.943,35.201-31.756c9.648-4.309,19.181-6.956,29.141-8.094
			c4.994-0.571,9.562-0.849,13.967-0.849c5.222,0,10.243,0.41,14.925,1.22c16.377,2.83,29.803,8.512,41.045,17.369
			c9.774,7.701,16.434,16.311,20.331,26.296c0.416,0.008,0.828,0.019,1.24,0.03c1.225,0.032,2.452,0.073,3.667-0.005
			c11.588-0.748,22.635,2.528,32.652,9.65c6.743,4.793,11.399,10.998,13.53,18.007c6.828-1.165,12.534-1.709,17.866-1.709
			c8.917,0,17.581,1.504,28.972,5.03c9.219,2.854,25.706,9.774,32.554,24.062c4.202,8.766,4.167,18.736-0.104,29.635
			c-4.62,13.98-14.204,23.897-28.489,29.479c-12.307,4.809-25.415,5.365-34.204,5.365c-2.85,0-5.386-0.066-7.624-0.125l-0.471-0.009
			c-1.398,0-2.069,0.163-3.566,1.886c-7.534,8.658-17.727,14.671-32.077,18.926c-7.998,2.372-16.41,3.525-25.716,3.525
			c-3.137,0-6.429-0.137-9.784-0.407c-9.543-0.769-18.584-3.341-26.882-7.646c-8.828,8.019-19.437,12.602-30.438,16.96
			c-11.29,4.472-22.83,7.358-34.301,8.581C413.34,363.043,404.507,363.903,395.338,363.903z M307.906,328.176
			c2.148,0,4.216,0.713,6.319,2.18c11.182,7.793,24.717,13.235,42.594,17.128c8.259,1.799,16.567,2.705,25.364,3.664l1.355,0.147
			c3.739,0.409,7.6,0.607,11.799,0.607c8.58,0,17.079-0.829,26.502-1.832c10.39-1.107,20.871-3.733,31.152-7.805
			c10.505-4.162,19.805-8.17,27.221-15.084c2.197-2.047,4.627-3.083,7.224-3.083c1.835,0,3.632,0.496,5.653,1.563
			c6.945,3.652,14.552,5.835,22.604,6.484c11.801,0.949,21.869,0.083,31.126-2.662c12.066-3.577,20.466-8.438,26.434-15.296
			c3.612-4.156,7.506-6.011,12.621-6.011c0.192,0,0.387,0.003,0.585,0.008l0.198,0.005c2.164,0.057,4.617,0.121,7.312,0.121
			c29.066,0,45.382-8.499,51.344-26.745l0.124-0.344c3.101-7.84,3.267-14.448,0.509-20.204
			c-4.877-10.175-17.934-15.51-25.282-17.785c-10.311-3.191-17.677-4.493-25.423-4.493c-4.948,0-10.377,0.558-17.084,1.754
			c-1.081,0.193-2.026,0.287-2.89,0.287c-7.086,0.001-8.646-6.075-9.158-8.072c-1.542-6.001-5.864-10.103-9.218-12.486
			c-7.737-5.502-16.146-8.011-24.929-7.456c-1.396,0.09-3.097,0.07-4.758,0.025c-0.675-0.018-1.35-0.036-2.023-0.038
			c-4.598-0.009-8.174-2.53-9.807-6.918c-3.057-8.241-8.567-15.416-16.847-21.939c-9.636-7.592-21.302-12.488-35.662-14.971
			c-7.549-1.304-15.654-1.396-25.486-0.273c-8.723,0.997-17.1,3.328-25.61,7.129c-13.199,5.893-23.353,15.197-30.179,27.654
			c-1.889,3.454-4.604,5.208-8.07,5.209c-0.257,0-0.523-0.011-0.8-0.033c-0.28-0.022-0.555-0.032-0.828-0.032
			c-1.76,0-3.726,0.422-5.807,0.869c-0.55,0.118-1.1,0.236-1.652,0.349c-9.494,1.936-18.166,5.979-25.772,12.018
			c-3.021,2.399-6.229,3.107-10.015,2.124c-0.393-0.102-1.013-0.297-1.833-0.566c-3.171-1.04-10.598-3.475-19.361-3.475
			c-15.251,0-27.536,7.277-36.515,21.632c-2.354,3.762-5.328,5.669-8.842,5.669c-1,0-2.01-0.168-2.999-0.499
			c-4.339-1.453-8.696-2.19-12.949-2.19c-23.47,0-38.617,21.568-38.761,32.911c0.085,0.622,0.072,1.218-0.014,1.777l-0.007,0.841
			l-0.268,0.255c-0.397,1.136-1.092,2.069-1.834,2.711c-6.168,5.335-8.912,12.049-7.938,19.417
			c1.477,11.17,10.916,21.975,25.249,28.901c12.299,5.944,25.809,9.087,39.069,9.087c14.271,0,28.297-3.658,40.56-10.578
			C304.179,328.717,306.044,328.176,307.906,328.176z"/>
	</g>
	<path display="inline" fill-rule="evenodd" clip-rule="evenodd" fill="#ED4F2E" d="M609.121,294.568
		c-4.886,0.537-9.148,0.246-12.791-3.377c-2.57-2.557-4.969-2.078-7.414,0.457c-3.469,3.594-6.805,7.379-10.957,10.223
		c-9.059,6.205-17.924,12.631-29.127,14.887c-6.895,1.387-13.736,2.406-20.758,2.713c-8.783,0.383-16.566-1.592-22.734-8.168
		c-3.713-3.961-4.449-3.941-9.225-1.215c-6.658,3.799-12.857,8.217-19.949,11.496c-15.121,6.99-30.846,11.664-46.957,15.301
		c-6.561,1.48-13.336,3.367-19.918,3.059c-8.59-0.402-17.229,0.141-25.811-1.137c-11.557-1.721-22.992-3.791-33.389-9.4
		c-5.893-3.18-11.396-6.994-12.861-14.268c-1.391-6.914-2.18-7.225-8.656-4.877c-17.66,6.4-35.66,12.258-54.457,13.182
		c-36.266,1.783-76.275-6.98-64.866-48.895c6.508-23.908,21.146-26.939,20.212-29.672c-4.5-13.152-43.635,48.312-35.07,62.891
		c2.268,3.859,11.576,23.607,15.07,26.457c23.027,18.783,66.906,11.107,93.674-3.998c2.23-1.258,3.67-1.154,5.643,0.221
		c13.529,9.428,28.814,14.6,44.748,18.068c9.012,1.963,18.162,2.91,27.344,3.914c13.332,1.457,26.477,0.172,39.588-1.223
		c11.195-1.193,22.223-4.033,32.727-8.193c10.383-4.113,20.746-8.482,29.104-16.273c1.971-1.836,3.605-1.857,5.986-0.602
		c7.783,4.094,16.27,6.461,24.92,7.158c11.174,0.898,22.383,0.352,33.314-2.891c11.188-3.316,21.504-8.203,29.254-17.109
		c2.518-2.896,4.824-4.041,8.521-3.943c16.529,0.43,33.471-0.668,48.141-8.697c14.219-7.783,21.456-33.932,15.537-37.232
		C651.016,283.43,638.443,291.336,609.121,294.568z"/>
	<path display="inline" fill="#ED4F2E" d="M388.912,491.59c-1.535,0-3.071-0.586-4.242-1.758l-49.084-49.084
		c-2.344-2.343-2.344-6.142,0-8.484c2.342-2.344,6.143-2.344,8.484,0l49.084,49.084c2.344,2.343,2.344,6.142,0,8.484
		C391.983,491.004,390.447,491.59,388.912,491.59z"/>
	<g display="inline">
		<circle fill="#FFFFFF" cx="330.819" cy="424.24" r="7"/>
		<path fill="#ED4F2E" d="M330.82,417.242c3.865,0,6.999,3.133,6.999,6.998c0,3.867-3.134,7-6.999,7c-3.867,0-7.001-3.133-7.001-7
			C323.819,420.375,326.953,417.242,330.82,417.242 M330.82,405.242c-10.477,0-19.001,8.522-19.001,18.998
			c0,10.477,8.524,19,19.001,19s18.999-8.523,18.999-19C349.819,413.765,341.297,405.242,330.82,405.242L330.82,405.242z"/>
	</g>
	<g display="inline">
		<circle fill="#FFFFFF" cx="514.819" cy="424.24" r="7"/>
		<path fill="#ED4F2E" d="M514.82,417.242c3.865,0,6.999,3.133,6.999,6.998c0,3.867-3.134,7-6.999,7c-3.867,0-7.001-3.133-7.001-7
			C507.819,420.375,510.953,417.242,514.82,417.242 M514.82,405.242c-10.477,0-19.001,8.522-19.001,18.998
			c0,10.477,8.524,19,19.001,19s18.999-8.523,18.999-19C533.819,413.765,525.297,405.242,514.82,405.242L514.82,405.242z"/>
	</g>
	<path display="inline" fill="#ED4F2E" d="M423.294,718.486c-23.494,0-46.61-3.371-65.09-9.492
		c-13.953-4.622-30.586-12.63-30.586-24.535l0.121-174.426h0.066c0.032-8.566,7.697-20.302,43.921-27.682l2.396,11.758
		c-25.001,5.094-34.317,12.504-34.317,15.979c0,2.593,5.897,8.19,22.144,12.984c16.437,4.851,38.164,7.521,61.181,7.521
		c22.901,0,44.475-2.714,60.746-7.641c17.235-5.219,21.789-10.87,21.789-13.129c0-1.553-2.197-4.504-8.391-7.71
		c-6.83-3.535-16.818-6.564-28.885-8.76l2.148-11.807c40.89,7.439,47.093,20.843,47.127,28.214h0.006l0.344,174.258
		C518.015,704.336,468.096,718.486,423.294,718.486z M339.728,526.695l-0.109,157.768c0,1.528,5.299,7.489,22.359,13.14
		c17.044,5.646,39.393,8.884,61.316,8.884c21.799,0,43.952-3.309,60.779-9.076c18.037-6.184,21.941-12.217,21.941-13.379
		l-0.311-157.393c-5.519,3.383-12.197,5.937-18.351,7.8c-17.368,5.259-40.177,8.155-64.224,8.155
		C390.155,542.594,356.896,537.183,339.728,526.695z"/>
	<path display="inline" fill="#ED4F2E" d="M424.76,477.796c22.155,0,32.43,6.149,37.146,11.308c2.783,3.043,3.886,5.964,4.32,7.892
		c-4.725,2.886-16.188,7.586-32.791,8.427l-1.658,0.085c-2.941,0.153-5.981,0.311-9.586,0.415
		c-20.031-0.034-37.083-6.099-43.176-9.583c0.127-1.572,0.698-3.947,2.678-6.455c3.537-4.482,13.797-12.012,42.757-12.087
		L424.76,477.796L424.76,477.796 M424.759,465.796c-0.112,0-0.226,0-0.338,0.001c-63.217,0.164-58.779,34.033-56.213,37.246
		c4.174,5.227,27.275,14.879,54.148,14.879c4.51-0.127,8.088-0.332,11.689-0.516c23.188-1.174,39.613-9.178,43.719-14.561
		C480.448,499.327,478.578,465.796,424.759,465.796L424.759,465.796z"/>
	<path display="inline" fill="#ED4F2E" d="M457.053,491.59c-1.523,0-3.047-0.576-4.216-1.73c-2.357-2.328-2.382-6.127-0.054-8.485
		l48.465-49.084c2.329-2.358,6.129-2.381,8.485-0.054c2.357,2.328,2.382,6.127,0.054,8.485l-48.465,49.084
		C460.148,490.994,458.601,491.59,457.053,491.59z"/>
	<g display="inline">
		<path fill-rule="evenodd" clip-rule="evenodd" fill="#ED4F2E" d="M462.355,549.674c-18.777,0-34.664,14.066-34.664,42.635
			c0,0.021,0,0.041,0,0.061v35h69c0,0,0.33-32.137,0.33-34.561C497.021,564.24,481.133,549.674,462.355,549.674z M442.809,615.367
			h-5.188v-23.244c0.721,1.268,1.496,2.484,2.262,3.688c0.307,0.48,0.613,0.961,0.916,1.445c2.482,3.967,3.412,7.357,2.93,10.672
			c-0.121,0.605-0.227,3.717,2.668,3.809C446.396,611.736,443.01,612.52,442.809,615.367z M471.781,621.293
			c-6.953,0.047-13.906,0.049-20.859-0.002c-3.197-0.023-4.867,0.191-4.803-2.904c0.064-3.037,1.654-2.586,4.838-2.615
			c3.51-0.035,7.021-0.01,10.533-0.01c3.441,0,6.883-0.027,10.324,0.01c3.17,0.033,4.762-0.389,4.795,2.648
			C476.641,621.535,474.998,621.271,471.781,621.293z M487.146,615.367h-5.188c-0.199-2.848-3.586-3.631-3.586-3.631
			c2.895-0.092,2.789-3.203,2.668-3.809c-0.484-3.314,0.447-6.705,2.928-10.672c0.303-0.484,0.609-0.965,0.916-1.445
			c0.768-1.203,1.541-2.42,2.262-3.688V615.367z M485.246,579.863c-0.082,4.775-1.486,9.121-4.199,13.072
			c-2.311,3.365-4.689,6.744-5.461,10.869c-0.201,1.088-0.246,2.242-0.158,3.352c0.084,1.072,0.664,2.135-1.289,2.344
			c-3.896,0.418-15.984,0.244-24.844,0.264c-1.133,0.002-0.758-1.078-0.691-1.52c0.648-4.451-0.998-8.48-3.213-12.021
			c-2.26-3.611-4.717-7.047-5.746-11.342c-2.998-12.5,5.439-25.621,18.121-27.898c14.207-2.551,26.91,7.671,27.496,22.127
			C485.27,579.361,485.246,579.611,485.246,579.863z"/>
	</g>
	<g display="inline">
		<path fill-rule="evenodd" clip-rule="evenodd" fill="#ED4F2E" d="M383.355,549.674c-18.777,0-34.664,14.066-34.664,42.635
			c0,0.021,0,0.041,0,0.061v35h69c0,0,0.33-32.137,0.33-34.561C418.021,564.24,402.133,549.674,383.355,549.674z M363.809,615.367
			h-5.188v-23.244c0.721,1.268,1.496,2.484,2.262,3.688c0.307,0.48,0.613,0.961,0.916,1.445c2.482,3.967,3.412,7.357,2.93,10.672
			c-0.121,0.605-0.227,3.717,2.668,3.809C367.396,611.736,364.01,612.52,363.809,615.367z M392.781,621.293
			c-6.953,0.047-13.906,0.049-20.859-0.002c-3.197-0.023-4.867,0.191-4.803-2.904c0.064-3.037,1.654-2.586,4.838-2.615
			c3.51-0.035,7.021-0.01,10.533-0.01c3.441,0,6.883-0.027,10.324,0.01c3.17,0.033,4.762-0.389,4.795,2.648
			C397.641,621.535,395.998,621.271,392.781,621.293z M408.146,615.367h-5.188c-0.199-2.848-3.586-3.631-3.586-3.631
			c2.895-0.092,2.789-3.203,2.668-3.809c-0.484-3.314,0.447-6.705,2.928-10.672c0.303-0.484,0.609-0.965,0.916-1.445
			c0.768-1.203,1.541-2.42,2.262-3.688V615.367z M406.246,579.863c-0.082,4.775-1.486,9.121-4.199,13.072
			c-2.311,3.365-4.689,6.744-5.461,10.869c-0.201,1.088-0.246,2.242-0.158,3.352c0.084,1.072,0.664,2.135-1.289,2.344
			c-3.896,0.418-15.984,0.244-24.844,0.264c-1.133,0.002-0.758-1.078-0.691-1.52c0.648-4.451-0.998-8.48-3.213-12.021
			c-2.26-3.611-4.717-7.047-5.746-11.342c-2.998-12.5,5.439-25.621,18.121-27.898c14.207-2.551,26.91,7.671,27.496,22.127
			C406.27,579.361,406.246,579.611,406.246,579.863z"/>
	</g>
	<g display="inline">
		<path fill="#FFFFFF" d="M491.99,645.637l-137.58,0.139l-0.094,29.811c0,6.455,31.471,14.059,69.338,14.059s68.6-7.816,68.6-14.271
			L491.99,645.637z"/>
		<path fill="#ED4F2E" d="M423.654,695.645c-18.095,0-35.897-1.685-50.13-4.741c-17.434-3.748-25.208-8.472-25.208-15.317
			l0.112-35.805l149.509-0.15l0.316,35.689c0,6.899-7.647,11.652-24.797,15.466C459.368,693.919,441.682,695.645,423.654,695.645z
			 M360.321,674.045c5.222,3.634,29.437,9.6,63.333,9.6c33.532,0,57.47-6.066,62.587-9.751l-0.198-22.251l-125.651,0.127
			L360.321,674.045z"/>
	</g>
	<path display="inline" fill="#ED4F2E" d="M466.355,675.369c-7.512,0-11.645-2.961-14.662-5.122
		c-2.505-1.795-4.018-2.878-7.674-2.878s-5.168,1.083-7.673,2.878c-3.018,2.161-7.15,5.122-14.661,5.122s-11.644-2.961-14.66-5.123
		c-2.505-1.794-4.017-2.877-7.671-2.877c-3.655,0-5.166,1.083-7.671,2.877c-3.017,2.162-7.149,5.123-14.66,5.123
		s-11.643-3.112-14.66-5.274c-2.505-1.793-4.017-3.027-7.672-3.027H349v-12h5.691c7.511,0,11.643,3.111,14.66,5.273
		c2.505,1.795,4.017,2.953,7.672,2.953s5.167-1.045,7.672-2.84c3.017-2.162,7.149-5.104,14.659-5.104s11.643,2.971,14.659,5.133
		c2.505,1.793,4.017,2.881,7.672,2.881c3.656,0,5.168-1.08,7.673-2.875c3.018-2.162,7.15-5.121,14.661-5.121
		c7.512,0,11.645,2.961,14.662,5.123c2.505,1.795,4.018,2.878,7.674,2.878s5.169-1.233,7.674-3.028
		c3.018-2.162,7.15-5.273,14.662-5.273H495v12h-6.309c-3.656,0-5.169,1.234-7.674,3.029
		C478,672.257,473.867,675.369,466.355,675.369z"/>
	<path display="inline" fill="#ED4F2E" d="M462.377,562.424c-9.338,1.059-16.439,8.283-16.609,16.957
		c-0.023,1.143,0.146,2.342,1.475,2.168c0.684-0.092,1.41-1.188,1.779-1.984c0.357-0.775,0.223-1.762,0.406-2.635
		c0.807-4.936,6.496-10.139,12.611-10.764C464.973,565.863,465.178,562.861,462.377,562.424z"/>
	<path display="inline" fill="#ED4F2E" d="M383.377,562.424c-9.338,1.059-16.439,8.283-16.609,16.957
		c-0.023,1.143,0.146,2.342,1.475,2.168c0.684-0.092,1.41-1.188,1.779-1.984c0.357-0.775,0.223-1.762,0.406-2.635
		c0.807-4.936,6.496-10.139,12.611-10.764C385.973,565.863,386.178,562.861,383.377,562.424z"/>
	<g display="inline">
		<path fill="#ED4F2E" d="M421.688,369.02l-6.57,5.449l24.664-2.244l-31.178,50.303l34.428-5.076l-26.18,72.418l79.453-103.48
			l-42.943,5.969l35.664-45.471l-4.934-0.361c-12.453,8.004-18.465,9.594-32.445,15.088
			C443.249,364.912,430.549,367.451,421.688,369.02z"/>
	</g>
</g>
<g id="Layer_3">
	<rect y="0.067" display="none" fill="#ED4F2E" width="865" height="866"/>
</g>
<g id="Layer_1_copy">
	<g>
		<path d="M247.08,722.785c-4.877-2.942-9.514-3.639-13.91-2.09c-4.398,1.55-8.37,5.264-11.916,11.144
			c-3.597,5.96-5.055,11.247-4.374,15.858c0.68,4.612,3.438,8.377,8.275,11.295c4.877,2.942,9.484,3.629,13.826,2.06
			c4.341-1.569,8.314-5.345,11.923-11.325c3.571-5.92,5.041-11.157,4.409-15.713C254.681,729.458,251.938,725.715,247.08,722.785z"
			/>
		<path d="M476.987,775.956c-0.449-3.368-1.767-5.664-3.95-6.887c-2.186-1.223-5.473-1.542-9.862-0.957l-7.702,1.026l2.595,19.481
			l8.12-1.082c4.182-0.558,7.138-1.796,8.867-3.718C476.785,781.899,477.43,779.277,476.987,775.956z"/>
		<path d="M72.935,513.674l3.672,16.219l14.213-9.345c1.795-1.198,4.03-2.522,6.707-3.969c-2.309-0.007-4.884-0.181-7.724-0.522
			L72.935,513.674z"/>
		<path d="M742.407,240.177c1.274-1.742,2.919-3.753,4.937-6.03c-2.17,0.786-4.648,1.507-7.434,2.161l-16.66,3.554l9.016,13.973
			L742.407,240.177z"/>
		<path d="M629.374,710.635c-2.769-0.256-6.161,0.848-10.177,3.31l-5.696,3.488l10.911,17.806l4.586-2.81
			c4.516-2.768,7.338-5.499,8.461-8.195c1.125-2.695,0.702-5.651-1.27-8.87C634.414,712.467,632.142,710.89,629.374,710.635z"/>
		<path d="M530.664,77.993c-0.146-2.154-0.182-4.752-0.104-7.793c-1.154,1.999-2.587,4.146-4.298,6.438L515.8,90.083l15.895,4.889
			L530.664,77.993z"/>
		<path d="M150.167,229.196c-0.882-4.935-4.163-9.332-9.843-13.192c-5.544-3.768-10.667-5.216-15.368-4.345
			c-4.7,0.872-8.916,4.051-12.644,9.536l-4.881,7.182l33.961,23.081l4.091-6.019C149.488,239.547,151.05,234.132,150.167,229.196z"
			/>
		<path d="M708.297,651.729c-2.506-2.296-4.988-3.212-7.448-2.748c-2.459,0.463-5.186,2.329-8.179,5.595l-5.25,5.728l14.488,13.277
			l5.535-6.038c2.85-3.111,4.322-5.958,4.417-8.542C711.956,656.418,710.768,653.994,708.297,651.729z"/>
		<path d="M430.037,0.775c-237.482,0-430,192.518-430,429.998c0,237.482,192.518,430,430,430s430-192.518,430-430
			C860.037,193.293,667.52,0.775,430.037,0.775z M751.523,228.562l2.726,4.225l-32.404,44.968l-3.355-5.199l10.268-14.24
			l-11.17-17.311l-17.168,3.547l-3.278-5.081L751.523,228.562z M705.225,170.597l-13.131,49.581l0.188,0.209
			c0.438-0.459,1.878-1.898,4.317-4.32s4.224-4.11,5.352-5.063l21.901-19.758l3.744,4.151l-38.165,34.428l-4.568-5.064
			l13.215-49.752l-0.188-0.208c-3.509,3.669-6.828,6.917-9.961,9.742l-21.692,19.569l-3.697-4.099l38.164-34.428L705.225,170.597z
			 M681.412,148.09l-33.746,38.769l-4.508-3.924l33.746-38.769L681.412,148.09z M629.729,108.959l-12.327,18.062l22.358,15.261
			l12.327-18.062l4.937,3.369l-28.975,42.453l-4.937-3.369l13.636-19.979l-22.359-15.26l-13.635,19.978l-4.937-3.369l28.975-42.453
			L629.729,108.959z M559.286,100.661c2.286-4.778,5.182-8.537,8.688-11.277c3.506-2.739,7.41-4.275,11.714-4.607
			c4.302-0.331,8.737,0.595,13.304,2.779c4.863,2.326,8.688,5.247,11.475,8.764l-4.498,3.537c-2.721-3.328-5.836-5.831-9.346-7.511
			c-5.096-2.438-9.93-2.665-14.502-0.683c-4.573,1.982-8.271,5.924-11.093,11.822c-2.902,6.068-3.724,11.437-2.463,16.105
			c1.261,4.67,4.523,8.264,9.788,10.782c3.235,1.547,7.202,2.73,11.903,3.55l-2.261,4.726c-3.791-0.332-8.043-1.626-12.758-3.881
			c-6.829-3.268-11.107-7.86-12.836-13.779S555.635,108.293,559.286,100.661z M530.164,63.236l4.805,1.479l4.148,55.271
			l-5.914-1.819l-1.31-17.506l-19.69-6.058l-10.855,13.765l-5.779-1.777L530.164,63.236z M439.013,47.042l8.943,1.008l11.425,43.956
			l0.279,0.031l21.064-40.292l8.874,1l-5.759,51.075l-5.938-0.67l3.71-32.908c0.426-3.773,1.05-7.854,1.876-12.242l-0.28-0.031
			l-22.563,43.236l-4.786-0.54l-12.224-47.229l-0.279-0.031c-0.078,3.624-0.396,7.904-0.952,12.842l-3.663,32.489l-5.485-0.618
			L439.013,47.042z M731.772,434.008c0,167.635-135.895,303.529-303.528,303.529c-167.635,0-303.529-135.895-303.529-303.529
			s135.895-303.529,303.529-303.529C595.878,130.479,731.772,266.373,731.772,434.008z M355.275,53.958l15.729,18.161l9.598-22.086
			l6.288-0.975l-12.012,26.48l21.1,24.123l-6.705,1.039l-17.115-20.223l-10.435,24.492l-6.253,0.97l12.77-29.159l-19.496-21.811
			L355.275,53.958z M330.706,59.374l1.549,5.078l-21.689,6.615l4.831,15.838l20.378-6.215l1.538,5.044l-20.378,6.215l5.519,18.092
			l21.689-6.615l1.559,5.111l-27.406,8.358l-14.994-49.162L330.706,59.374z M233.006,103.345c1.464-3.494,4.336-6.431,8.618-8.81
			c4.467-2.481,9.029-3.944,13.689-4.389l0.898,5.453c-4.573,0.504-8.612,1.729-12.115,3.675c-2.766,1.536-4.598,3.332-5.494,5.385
			c-0.897,2.054-0.759,4.136,0.413,6.246c0.865,1.557,1.86,2.673,2.986,3.348c1.126,0.676,2.6,1.049,4.424,1.121
			c1.823,0.073,4.417-0.168,7.782-0.724c5.646-0.938,9.89-0.937,12.731,0.005s5.117,2.948,6.824,6.021
			c2.197,3.954,2.476,7.834,0.837,11.641s-4.917,7.075-9.834,9.808c-5.327,2.959-9.806,4.55-13.437,4.771l-2.8-5.04
			c2.276-0.246,4.625-0.747,7.048-1.503c2.422-0.756,4.698-1.726,6.829-2.909c3.482-1.936,5.737-4.053,6.766-6.354
			c1.027-2.3,0.888-4.629-0.422-6.984c-0.864-1.557-1.886-2.659-3.062-3.306c-1.178-0.646-2.731-0.982-4.663-1.009
			s-4.689,0.259-8.272,0.855c-5.01,0.827-8.98,0.714-11.912-0.34c-2.931-1.052-5.312-3.228-7.145-6.526
			C231.772,110.318,231.542,106.84,233.006,103.345z M181.082,136.547l20.557,26.501c2.629,3.389,5.573,5.272,8.833,5.65
			c3.26,0.379,6.686-0.825,10.278-3.612c3.426-2.658,5.357-5.617,5.795-8.878c0.437-3.26-0.666-6.595-3.31-10.002l-20.514-26.445
			l4.722-3.663l20.385,26.278c3.592,4.63,5.016,9.354,4.274,14.171c-0.742,4.817-3.558,9.122-8.447,12.915
			c-4.889,3.792-9.706,5.393-14.45,4.802c-4.745-0.591-8.927-3.22-12.547-7.887l-20.299-26.167L181.082,136.547z M158.67,156.673
			l3.863,3.642l-15.556,16.499l12.049,11.359l14.614-15.502l3.837,3.617l-14.614,15.502l13.762,12.975l15.556-16.499l3.888,3.666
			l-19.654,20.848l-37.398-35.259L158.67,156.673z M108.65,217.389c4.492-6.609,9.815-10.502,15.969-11.676
			c6.154-1.174,12.517,0.473,19.088,4.938c7.018,4.77,11.088,10.319,12.211,16.651s-0.745,13.074-5.606,20.228l-8.004,11.775
			l-42.51-28.891L108.65,217.389z M45.338,478.953l33.07-1.764c3.791-0.202,7.919-0.258,12.384-0.167l-0.015-0.281l-46.364-15.13
			l-0.257-4.81l44.569-19.839l-0.015-0.281c-3.588,0.52-7.862,0.912-12.822,1.177L43.239,439.6l-0.294-5.511l51.325-2.738
			l0.479,8.987L53.279,458.85l0.015,0.281l43.212,14.137l0.476,8.917l-51.325,2.738L45.338,478.953z M57.238,542.748l14.533-9.85
			l-4.549-20.095l-17.341-2.563l-1.335-5.896l54.822,8.427l1.108,4.901l-45.873,31.11L57.238,542.748z M76.38,596.662
			c-1.459-2.445-2.878-5.386-4.255-8.823c-2.893-7.224-2.998-13.709-0.314-19.455c2.685-5.747,7.899-10.171,15.646-13.273
			c4.96-1.987,9.705-2.733,14.233-2.237c4.529,0.496,8.527,2.221,11.996,5.174c3.468,2.952,6.208,6.942,8.223,11.968
			c2.039,5.091,3.004,10.208,2.894,15.354l-5.759-0.192c0.102-5.041-0.645-9.55-2.239-13.531
			c-2.327-5.811-5.874-9.653-10.642-11.531c-4.767-1.877-10.217-1.588-16.353,0.871c-6.44,2.58-10.695,6.107-12.764,10.586
			c-2.069,4.477-1.884,9.762,0.556,15.854c1.326,3.307,3,6.385,5.026,9.235l14.686-5.884l-4.275-10.672l4.96-1.986l6.499,16.219
			l-23.203,9.296C79.477,601.432,77.839,599.107,76.38,596.662z M110.159,647.935l-4.591,2.736L90.9,626.058l44.154-26.312
			l14.667,24.613l-4.56,2.717l-11.609-19.479l-14.224,8.478l10.906,18.301l-4.53,2.7l-10.906-18.302l-16.248,9.682L110.159,647.935z
			 M140.566,695.735l14.855-49.287l-0.183-0.215c-3.627,3.552-7.054,6.687-10.276,9.407l-22.33,18.84l-3.559-4.219l39.283-33.145
			l4.353,5.158l-14.766,49.12l0.182,0.214c0.453-0.443,1.939-1.836,4.458-4.174c2.518-2.34,4.356-3.969,5.516-4.885l22.544-19.021
			l3.604,4.272l-39.284,33.145L140.566,695.735z M176.165,729.613l-4.549-3.876l29.893-35.081L189.12,680.1l3.442-4.041
			l29.328,24.991l-3.443,4.04l-12.389-10.557L176.165,729.613z M256.323,752.996c-4.249,7.045-9.373,11.508-15.368,13.394
			c-5.995,1.884-12.165,0.914-18.506-2.912c-6.482-3.91-10.289-8.908-11.42-14.999c-1.131-6.087,0.483-12.744,4.842-19.969
			c4.321-7.164,9.438-11.653,15.35-13.465c5.912-1.812,12.118-0.758,18.62,3.164c6.321,3.814,10.047,8.8,11.178,14.957
			C262.149,739.322,260.584,745.932,256.323,752.996z M333.281,790.192c-1.765,5.588-4.838,9.447-9.221,11.578
			c-4.385,2.133-9.526,2.266-15.426,0.403c-5.901-1.862-9.959-4.913-12.173-9.15c-2.214-4.238-2.432-9.173-0.653-14.806
			l9.967-31.581l5.699,1.799l-10.094,31.984c-1.291,4.09-1.165,7.582,0.379,10.478c1.543,2.896,4.482,5.028,8.82,6.397
			c4.133,1.305,7.666,1.209,10.596-0.287s5.045-4.3,6.342-8.413l10.074-31.916l5.699,1.799L333.281,790.192z M385.017,772.348
			c-3.977-2.315-7.951-3.733-11.925-4.252c-3.138-0.409-5.678-0.056-7.62,1.062c-1.942,1.116-3.069,2.872-3.382,5.265
			c-0.23,1.767-0.094,3.257,0.409,4.469s1.466,2.39,2.889,3.532s3.651,2.492,6.687,4.047c5.097,2.604,8.507,5.129,10.232,7.576
			c1.725,2.447,2.36,5.413,1.904,8.9c-0.585,4.484-2.669,7.77-6.25,9.854c-3.582,2.086-8.162,2.765-13.739,2.036
			c-6.043-0.79-10.588-2.175-13.638-4.156l0.746-5.717c1.976,1.157,4.162,2.151,6.56,2.983c2.396,0.832,4.802,1.408,7.22,1.723
			c3.951,0.516,7.023,0.155,9.218-1.083s3.466-3.192,3.815-5.866c0.23-1.766,0.065-3.259-0.497-4.479
			c-0.562-1.221-1.611-2.414-3.147-3.584c-1.538-1.17-3.924-2.581-7.16-4.232c-4.519-2.314-7.644-4.768-9.373-7.356
			c-1.73-2.591-2.351-5.757-1.862-9.498c0.513-3.927,2.396-6.86,5.652-8.8c3.254-1.938,7.311-2.591,12.167-1.957
			c5.066,0.662,9.604,2.2,13.615,4.615L385.017,772.348z M404.478,817.539l-0.355-51.398l28.651-0.198l0.036,5.31l-22.675,0.157
			l0.114,16.558l21.305-0.147l0.036,5.273l-21.304,0.147l0.131,18.914l22.675-0.158l0.037,5.344L404.478,817.539z M484.533,811.836
			l-15.159-19.544l-10.63,1.415l2.823,21.188l-5.924,0.789l-6.788-50.948l13.975-1.861c6.25-0.832,11.027-0.25,14.331,1.744
			c3.303,1.995,5.276,5.397,5.917,10.206c0.897,6.738-1.911,11.746-8.426,15.026l16.885,21.053L484.533,811.836z M537.225,799.849
			l-15.695-48.943l27.283-8.749l1.621,5.056l-21.592,6.924l5.056,15.769l20.287-6.507l1.61,5.022l-20.286,6.505l5.774,18.011
			l21.594-6.924l1.631,5.088L537.225,799.849z M610.167,771.735l-21.903-14.902l-3.498,26.392L579,785.832l4.499-31.513
			l-24.623-15.797l6.022-2.724l20.016,13.288l3.336-23.85l5.797-2.622l-4.485,28.729l26.788,17.595L610.167,771.735z
			 M643.05,724.912c-1.564,4.243-5.164,8.091-10.8,11.544l-5.156,3.159l10.561,17.236l-5.095,3.123l-26.854-43.826l11.361-6.961
			c10.95-6.711,19.034-5.809,24.251,2.704C644.036,716.328,644.613,720.668,643.05,724.912z M678.27,729.903l-32.428-39.88
			l22.23-18.077l3.35,4.119l-17.594,14.306l10.446,12.848l16.529-13.441l3.328,4.092l-16.53,13.44l11.933,14.675l17.594-14.307
			l3.371,4.148L678.27,729.903z M737.105,674.41l-24.168-5.267l-7.244,7.905l15.759,14.442l-4.038,4.405l-37.894-34.726
			l9.524-10.394c4.26-4.648,8.297-7.266,12.111-7.855s7.511,0.754,11.088,4.031c5.012,4.594,6.069,10.236,3.177,16.932l26.458,5.314
			L737.105,674.41z M753.236,653.386l-41.912-29.752l3.46-4.874l41.912,29.753L753.236,653.386z M770.494,627.494l-45.208-24.456
			l13.634-25.2l4.669,2.524L732.8,600.307l14.563,7.88l10.138-18.739l4.638,2.51l-10.137,18.738l16.635,8.999l10.791-19.944
			l4.7,2.543L770.494,627.494z M804.514,548.533l-49.768,13.153l-0.09,0.269c4.926,1.23,9.391,2.507,13.397,3.828l27.743,9.157
			l-1.73,5.241l-48.808-16.109l2.114-6.41l49.58-13.143l0.086-0.267c-0.614-0.153-2.578-0.691-5.891-1.612
			c-3.312-0.919-5.661-1.634-7.049-2.141l-28.011-9.246l1.753-5.307l48.809,16.109L804.514,548.533z M816.082,495.104
			c-1.089,7.491-4.203,12.941-9.341,16.351c-5.137,3.409-11.892,4.506-20.267,3.288c-5.24-0.762-9.69-2.409-13.35-4.943
			c-3.657-2.533-6.283-5.804-7.879-9.813s-2.03-8.521-1.302-13.529c0.775-5.335,2.427-9.854,4.956-13.562l4.716,3.244
			c-2.369,3.587-3.834,7.306-4.395,11.156c-0.812,5.589,0.407,10.271,3.659,14.049s8.114,6.137,14.585,7.076
			c6.657,0.969,12.026,0.157,16.109-2.436c4.085-2.59,6.545-6.774,7.385-12.55c0.517-3.549,0.468-7.688-0.146-12.421l5.183,0.756
			C816.806,485.486,816.835,489.932,816.082,495.104z M767.17,458.811l0.246-28.652l5.309,0.047l-0.193,22.675l16.557,0.142
			l0.183-21.305l5.273,0.045l-0.183,21.305l18.914,0.162l0.193-22.675l5.345,0.045l-0.246,28.652L767.17,458.811z"/>
		<polygon points="224.066,417.391 225.066,416.195 230.376,409.865 249.297,424.816 251.248,426.355 252.47,424.971 256,420.965 
			268.428,430.246 270.49,431.787 271.592,430.332 276.607,423.703 294.842,435.648 300.367,439.49 300.59,439.413 305.689,442.754 
			308.52,441.783 272.127,414.137 270.223,412.592 268.952,413.949 263.965,419.277 251.408,408.166 249.814,406.758 
			248.315,407.818 243.083,411.514 225.943,397.195 224.038,395.6 222.748,396.992 216.796,403.447 169.528,381.619 
			167.296,382.955 222.095,416.197 		"/>
		<polygon points="280.819,557.645 280.663,558.594 279.501,565.648 266.194,565.09 265.129,565.045 264.83,565.898 
			262.719,571.963 245.249,571.797 244.053,571.785 243.896,572.76 242.614,580.836 206.251,588.5 208.581,590.465 251.795,586.551 
			252.881,586.441 252.984,585.561 253.906,577.699 272.966,577.277 274.142,577.25 274.274,576.297 275.004,571.012 
			287.55,570.338 288.742,570.275 288.814,569.309 289.394,561.463 311.642,559.42 311.693,557.406 281.989,557.637 		"/>
		<path d="M195.696,485.421l39.451,13.56l1.514,0.521l0.226-1.303l1.444-8.336l17.447,5.031l1.433,0.414l0.232-1.201l1.062-5.525
			l11.412,2.854l1.457,0.365l0.164-1.213l1.135-8.449l20.544,4.189l0.759-1.902l-27.681-8.473l-1.423-0.436l-0.262,1.197
			l-1.594,7.334l-12.02-4.416l-1.291-0.475l-0.429,1.082l-2.358,5.949l-15.96-5.219l-1.45-0.475l-0.262,1.232l-1.756,8.289
			l-27.405-6.272c4.396-1.34,9.977-2.432,12.672-2.876l-0.284-1.98c0,0-0.65,0.015-1.706,0.015c-9.015,0-15.838-0.776-17.807-2.022
			c-3-1.902-5.976-11.258-6.87-14.701l-2.48,0.227c0.107,3.516-0.135,13.168-2.518,15.561c-2.385,2.395-14.118,4.77-18.438,5.48
			l0.287,1.98c0,0,0.653-0.014,1.717-0.014c9.01,0,15.827,0.773,17.794,2.02c3.002,1.902,5.978,11.258,6.872,14.703l2.483-0.227
			c-0.108-3.518,0.132-13.168,2.515-15.561C194.633,486.038,195.107,485.728,195.696,485.421z"/>
		<path d="M279.574,627.881l-1.01-1.717c-0.098,0.045-9.707,4.566-14.131,4.566c-0.361,0-0.668-0.033-0.908-0.096
			c-2.961-0.768-8.924-8.359-10.971-11.219l-1.717,1.01c1.504,3.18,5.238,12.08,4.473,15.037
			c-0.768,2.961-8.361,8.924-11.221,10.971l1.01,1.72c0.096-0.048,9.707-4.569,14.131-4.569c0.359,0,0.664,0.031,0.906,0.094
			c2.959,0.77,8.922,8.361,10.969,11.221l1.719-1.01c-1.504-3.18-5.24-12.082-4.473-15.039S276.713,629.93,279.574,627.881z"/>
		<polygon points="621.794,485.232 598.17,478.352 596.263,484.975 577.037,480.561 575.002,490.148 547.488,487.025 
			547.193,487.994 583.371,495.812 586.053,487.418 605.941,493.598 609.717,486.834 631.335,493.811 634.287,484.389 
			688.466,488.406 688.67,487.426 624.243,475.895 		"/>
		<path d="M671.014,391.493l-40.61,23.364l-5.806-6.555l-1.321-1.494l-2.102,1.418l-18.845,12.719l-5.449-4.105l-1.556-1.178
			l-1.755,1.26l-13.843,9.932l-5.113-5.7l-1.303-1.452l-2.09,1.363l-33.408,21.82l2.982,1.203l25.264-13.93l5.095,6.995l1.119,1.532
			l2.262-1.35l13.636-8.131l3.611,4.27l1.252,1.477l2.14-1.359l20.783-13.193l5.417,6.725l1.288,1.596l2.178-1.506l46.098-31.924
			c-0.812,3.892-3.031,9.277-4.104,11.609l1.73,0.992c2.016-2.885,7.892-10.543,10.838-11.344c0.61-0.166,1.905-0.219,4.604,0.465
			c4.693,1.189,10.43,3.811,10.488,3.84l0.989-1.73c-2.884-2.016-10.543-7.893-11.342-10.842c-0.804-2.951,2.833-11.893,4.301-15.09
			l-1.728-0.99c-2.016,2.885-7.893,10.545-10.844,11.342c-0.609,0.166-1.902,0.221-4.601-0.463
			c-4.693-1.189-10.429-3.812-10.485-3.838l-0.992,1.729C662.58,382.917,669.805,388.462,671.014,391.493z"/>
		<path d="M646.85,578.969c-1.117-2.844,1.523-12.129,2.635-15.467l-1.826-0.797c-1.689,3.086-6.697,11.34-9.543,12.455
			c-0.301,0.119-0.879,0.26-1.924,0.26c-4.805,0-13.457-2.863-13.543-2.893l-0.797,1.826c1.576,0.862,4.498,2.593,7.13,4.456
			l-16.71-1.731l-1.794-7.93l-0.218-0.967l-1.253,0.062l-18.271,0.922l-2.561-5.973l-0.362-0.844l-1.111,0.094l-13.896,1.133
			l-1.625-7.006l-0.219-0.941l-1.226,0.041l-31.093,1.053l0.175,2.012l23.395,1.082l1.067,7.82l0.13,0.963l1.254,0.012l13.166,0.131
			l1.072,5.256l0.195,0.947l1.229-0.025l19.964-0.398l1.426,7.82l0.177,0.977l1.265-0.035l30.142-0.853
			c0.472,0.525,0.832,1.022,1.005,1.464c1.119,2.848-1.521,12.131-2.633,15.467l1.826,0.797c1.689-3.086,6.699-11.338,9.545-12.455
			c0.299-0.117,0.873-0.256,1.916-0.256c4.801,0,13.463,2.863,13.549,2.893l0.797-1.826
			C656.219,586.824,647.967,581.816,646.85,578.969z"/>
		<polygon points="582.758,632.035 582.027,632.646 577.914,636.086 571.896,630.012 571.305,629.416 570.652,629.926 
			564.096,635.057 548.295,621.082 546.975,622.756 564.203,641.559 564.795,642.205 565.475,641.676 571.387,637.064 
			576.756,645.299 577.379,646.254 578.197,645.504 582.938,641.17 596.975,652.945 598.318,651.305 583.369,632.791 		"/>
		<path d="M192.453,273.737c-7.871,7.756-11.42,17.696-10.024,28.257c2.008,15.187,13.941,29.442,31.923,38.133
			c13.918,6.727,29.233,10.282,44.292,10.282c16.202,0,32.14-4.126,46.116-11.936c12.441,8.582,27.236,14.539,46.506,18.734
			c8.88,1.935,17.896,2.918,26.617,3.869l1.353,0.147c4.177,0.456,8.463,0.679,13.103,0.679c9.169,0,18.002-0.86,27.772-1.9
			c11.471-1.223,23.011-4.109,34.301-8.581c11.001-4.358,21.609-8.941,30.438-16.96c8.298,4.305,17.339,6.877,26.882,7.646
			c3.355,0.271,6.647,0.407,9.784,0.407c9.306,0,17.718-1.153,25.716-3.525c14.351-4.255,24.543-10.268,32.077-18.926
			c1.497-1.723,2.168-1.886,3.566-1.886l0.471,0.009c2.238,0.059,4.774,0.125,7.624,0.125c8.789,0,21.897-0.557,34.204-5.365
			c14.285-5.582,23.869-15.499,28.489-29.479c4.271-10.898,4.306-20.869,0.104-29.635c-6.848-14.287-23.335-21.208-32.554-24.062
			c-11.391-3.526-20.055-5.03-28.972-5.03c-5.332,0-11.038,0.544-17.866,1.709c-2.131-7.009-6.787-13.214-13.53-18.007
			c-10.018-7.122-21.064-10.398-32.652-9.65c-1.215,0.078-2.442,0.037-3.667,0.005c-0.412-0.012-0.824-0.022-1.24-0.03
			c-3.897-9.985-10.557-18.595-20.331-26.296c-11.242-8.857-24.668-14.539-41.045-17.369c-4.682-0.81-9.703-1.22-14.925-1.22
			c-4.404,0-8.973,0.277-13.967,0.849c-9.96,1.138-19.492,3.785-29.141,8.094c-15.259,6.812-27.096,17.49-35.201,31.756
			c-2.952,0.027-5.689,0.615-8.11,1.136c-0.509,0.109-1.018,0.219-1.528,0.323c-11.275,2.298-21.578,7.079-30.627,14.211
			c-0.227-0.071-0.513-0.168-0.857-0.28c-3.717-1.219-12.42-4.072-23.101-4.072c-19.227,0-35.267,9.275-46.413,26.832
			c-4.961-1.475-9.961-2.221-14.892-2.221C213.758,230.509,193.769,255.902,192.453,273.737z M256.096,244.699
			c0.989,0.331,1.999,0.499,2.999,0.499c3.514,0,6.488-1.907,8.842-5.669c8.979-14.354,21.264-21.632,36.515-21.632
			c8.764,0,16.19,2.435,19.361,3.475c0.82,0.27,1.44,0.465,1.833,0.566c3.786,0.983,6.994,0.275,10.015-2.124
			c7.606-6.038,16.278-10.082,25.772-12.018c0.553-0.112,1.103-0.23,1.652-0.349c2.081-0.447,4.047-0.869,5.807-0.869
			c0.273,0,0.548,0.01,0.828,0.032c0.276,0.022,0.543,0.033,0.8,0.033c3.466-0.001,6.182-1.755,8.07-5.209
			c6.826-12.457,16.979-21.762,30.179-27.654c8.511-3.801,16.888-6.132,25.61-7.129c9.832-1.123,17.938-1.03,25.486,0.273
			c14.36,2.482,26.026,7.379,35.662,14.971c8.279,6.523,13.79,13.698,16.847,21.939c1.633,4.388,5.209,6.909,9.807,6.918
			c0.674,0.002,1.349,0.021,2.023,0.038c1.661,0.045,3.362,0.064,4.758-0.025c8.783-0.555,17.191,1.954,24.929,7.456
			c3.354,2.384,7.676,6.485,9.218,12.486c0.513,1.997,2.072,8.073,9.158,8.072c0.863,0,1.809-0.094,2.89-0.287
			c6.707-1.196,12.136-1.754,17.084-1.754c7.746,0,15.112,1.302,25.423,4.493c7.349,2.275,20.405,7.61,25.282,17.785
			c2.41,5.03,2.587,10.712,0.523,17.297c-4.48,9.418-16.793,13.987-37.348,16.253c-4.886,0.537-9.148,0.246-12.791-3.377
			c-2.57-2.557-4.969-2.078-7.414,0.457c-3.469,3.594-6.805,7.379-10.957,10.223c-9.059,6.205-17.924,12.631-29.127,14.887
			c-6.895,1.387-13.736,2.406-20.758,2.713c-8.783,0.383-16.566-1.592-22.734-8.168c-3.713-3.961-4.449-3.941-9.225-1.215
			c-6.658,3.799-12.857,8.217-19.949,11.496c-15.121,6.99-30.846,11.664-46.957,15.301c-6.561,1.48-13.336,3.367-19.918,3.059
			c-8.59-0.402-17.229,0.141-25.811-1.137c-11.557-1.721-22.992-3.791-33.389-9.4c-5.893-3.18-11.396-6.994-12.861-14.268
			c-1.391-6.914-2.18-7.225-8.656-4.877c-17.66,6.4-35.66,12.258-54.457,13.182c-36.266,1.783-76.275-6.98-64.866-48.895
			c1.935-7.106,4.588-12.357,7.337-16.315c6.769-7.51,16.963-13.725,29.559-13.725C247.399,242.509,251.757,243.246,256.096,244.699
			z"/>
		<path d="M511.82,403.242c-10.477,0-19.001,8.522-19.001,18.998c0,3.836,1.151,7.403,3.114,10.394l-38.182,38.67
			c-6.285-3.426-14.665-6.057-25.76-7.061l61.312-79.854l-42.943,5.969l35.664-45.471l-4.934-0.361
			c-12.453,8.004-18.465,9.594-32.445,15.088c-8.397,3.299-21.098,5.838-29.959,7.406l-6.57,5.449l24.664-2.244l-31.178,50.303
			l34.428-5.076l-17.479,48.488c-0.267-0.002-0.524,0.128-0.793,0.128c-0.112,0-0.226,0-0.338,0
			c-18.391,0-31.048,2.814-39.698,6.982l-38.117-38.185c2.027-3.021,3.214-6.687,3.214-10.591c0-10.477-8.522-19.016-18.999-19.016
			s-19.001,8.514-19.001,18.99s8.524,18.995,19.001,18.995c2.173,0,4.253-0.387,6.199-1.062l37.629,37.628
			c-1.062,1.047-1.986,2.112-2.791,3.187l-0.131-0.628c-36.224,7.38-43.889,18.698-43.921,27.698h-0.066l-0.121,174.408
			c0,11.906,16.633,19.905,30.586,24.527c18.479,6.121,41.596,9.488,65.09,9.488c44.802,0,94.721-14,94.721-34.316l-0.344-174.107
			h-0.006c-0.034-8-6.167-20.734-46.279-28.205c-0.317-0.367-0.644-0.81-0.987-1.173l38.021-38.545
			c2.003,0.721,4.152,1.114,6.4,1.114c10.477,0,18.999-8.532,18.999-19.009C530.819,411.774,522.297,403.242,511.82,403.242z
			 M320.819,422.24c0-3.865,3.134-6.998,7.001-6.998c3.865,0,6.999,3.133,6.999,6.998c0,3.867-3.134,7-6.999,7
			C323.953,429.24,320.819,426.107,320.819,422.24z M503.015,682.031c0,1.162-3.904,7.195-21.941,13.379
			c-16.827,5.768-38.98,9.076-60.779,9.076c-21.924,0-44.272-3.238-61.316-8.884c-17.061-5.65-22.359-11.611-22.359-13.14
			l0.109-157.768c17.169,10.487,50.428,15.898,83.402,15.898c24.047,0,46.855-2.896,64.224-8.155
			c6.153-1.863,12.832-4.417,18.351-7.8L503.015,682.031z M494.274,500.114c6.193,3.206,8.391,6.157,8.391,7.71
			c0,2.259-4.554,7.91-21.789,13.129c-16.271,4.927-37.845,7.641-60.746,7.641c-23.017,0-44.744-2.671-61.181-7.521
			c-16.246-4.794-22.144-10.392-22.144-12.984c0-3.124,7.538-9.428,27.226-14.37c-0.245,3.715,0.525,6.51,1.177,7.325
			c4.174,5.227,27.275,14.879,54.148,14.879c4.51-0.127,8.088-0.332,11.689-0.516c23.188-1.174,39.613-9.178,43.719-14.561
			c0.68-0.892,1.065-3.71,0.391-7.419C482.879,495.317,489.389,497.585,494.274,500.114z M463.227,494.995
			c-4.725,2.886-16.188,7.586-32.791,8.427l-1.658,0.085c-2.941,0.153-5.981,0.311-9.586,0.415
			c-20.031-0.034-37.083-6.099-43.176-9.583c0.127-1.572,0.698-3.947,2.678-6.455c0.391-0.496,0.87-1.03,1.442-1.586l1.534,1.534
			c1.171,1.172,2.707,1.758,4.242,1.758s3.071-0.586,4.242-1.758c2.108-2.107,2.303-5.384,0.619-7.728
			c6.107-2.224,14.874-3.975,27.426-4.263l-4.348,12.027l9.261-12.062c11.741,0.137,20.039,2.031,25.886,4.557
			c-1.492,2.334-1.212,5.471,0.839,7.495c1.169,1.154,2.692,1.73,4.216,1.73c1.548,0,3.096-0.596,4.27-1.784l0.635-0.643
			C461.7,490.185,462.795,493.08,463.227,494.995z M511.82,429.24c-3.867,0-7.001-3.133-7.001-7c0-3.865,3.134-6.998,7.001-6.998
			c3.865,0,6.999,3.133,6.999,6.998C518.819,426.107,515.686,429.24,511.82,429.24z"/>
		<path d="M459.51,547.674c-18.777,0-34.51,14.066-34.51,42.635c0,0.021,0,0.041,0,0.061v34.698h68.691
			c0,0,0.407-31.986,0.407-34.41C494.099,562.089,478.287,547.674,459.51,547.674z M454.766,554.982
			c14.207-2.551,26.91,7.671,27.496,22.127c0.008,0.252-0.016,0.502-0.016,0.754c-0.082,4.775-1.486,9.121-4.199,13.072
			c-2.311,3.365-4.689,6.744-5.461,10.869c-0.201,1.088-0.246,2.242-0.158,3.352c0.084,1.072,0.664,2.135-1.289,2.344
			c-3.896,0.418-15.984,0.244-24.844,0.264c-1.133,0.002-0.758-1.078-0.691-1.52c0.648-4.451-0.998-8.48-3.213-12.021
			c-2.26-3.611-4.717-7.047-5.746-11.342C433.646,570.381,442.084,557.26,454.766,554.982z M439.809,613.067H435v-22.944
			c0,1.268,1.307,2.484,2.072,3.688c0.307,0.48,0.519,0.961,0.821,1.445c2.482,3.967,3.364,7.357,2.882,10.672
			c-0.121,0.605-0.25,3.567,2.645,3.659C443.42,609.587,440.01,610.067,439.809,613.067z M468.781,619.293
			c-6.953,0.047-13.906,0.049-20.859-0.002c-3.197-0.023-4.867,0.191-4.803-2.904c0.064-3.037,1.654-2.586,4.838-2.615
			c3.51-0.035,7.021-0.01,10.533-0.01c3.441,0,6.883-0.027,10.324,0.01c3.17,0.033,4.762-0.389,4.795,2.648
			C473.641,619.535,471.998,619.271,468.781,619.293z M484,613.067h-5.041c-0.199-3-3.586-3.48-3.586-3.48
			c2.895-0.092,2.789-3.129,2.668-3.734c-0.484-3.314,0.447-6.668,2.928-10.635c0.303-0.484,0.536-0.945,0.843-1.426
			c0.768-1.203,1.188-2.401,2.188-3.669V613.067z"/>
		<path d="M415.021,590.657c0-28.568-15.734-43.059-34.512-43.059S346,561.74,346,590.309c0,0.021,0,0.041,0,0.061v34.698h68.691
			C414.691,625.067,415.021,593.081,415.021,590.657z M375.766,554.982c14.207-2.551,26.91,7.671,27.496,22.127
			c0.008,0.252-0.016,0.502-0.016,0.754c-0.082,4.775-1.486,9.121-4.199,13.072c-2.311,3.365-4.689,6.744-5.461,10.869
			c-0.201,1.088-0.246,2.242-0.158,3.352c0.084,1.072,0.664,2.135-1.289,2.344c-3.896,0.418-15.984,0.244-24.844,0.264
			c-1.133,0.002-0.758-1.078-0.691-1.52c0.648-4.451-0.998-8.48-3.213-12.021c-2.26-3.611-4.717-7.047-5.746-11.342
			C354.646,570.381,363.084,557.26,375.766,554.982z M360.809,613.067H356v-22.944c0,1.268,1.307,2.484,2.072,3.688
			c0.307,0.48,0.519,0.961,0.821,1.445c2.482,3.967,3.364,7.357,2.882,10.672c-0.121,0.605-0.25,3.567,2.645,3.659
			C364.42,609.587,361.01,610.067,360.809,613.067z M389.781,619.293c-6.953,0.047-13.906,0.049-20.859-0.002
			c-3.197-0.023-4.867,0.191-4.803-2.904c0.064-3.037,1.654-2.586,4.838-2.615c3.51-0.035,7.021-0.01,10.533-0.01
			c3.441,0,6.883-0.027,10.324,0.01c3.17,0.033,4.762-0.389,4.795,2.648C394.641,619.535,392.998,619.271,389.781,619.293z
			 M405,613.067h-5.041c-0.199-3-3.586-3.48-3.586-3.48c2.895-0.092,2.789-3.129,2.668-3.734c-0.484-3.314,0.447-6.668,2.928-10.635
			c0.303-0.484,0.536-0.945,0.843-1.426c0.768-1.203,1.188-2.401,2.188-3.669V613.067z"/>
		<path d="M345.378,654.067H345v12h0.34l-0.023,7.519c0,6.846,7.774,11.569,25.208,15.317c14.232,3.057,32.035,4.741,50.13,4.741
			c18.027,0,35.714-1.726,49.803-4.858c17.149-3.813,24.797-8.566,24.797-15.466l-0.316-35.689l-149.509,0.15L345.378,654.067z
			 M420.654,681.645c-33.896,0-58.111-5.966-63.333-9.6l0.015-4.753c0.644,0.352,1.293,0.777,2.027,1.303
			c3.018,2.162,7.149,4.774,14.66,4.774s11.644-2.961,14.66-5.123c2.505-1.794,4.016-2.877,7.671-2.877
			c3.654,0,5.166,1.083,7.671,2.877c3.017,2.162,7.149,5.123,14.66,5.123s11.644-2.961,14.661-5.122
			c2.505-1.795,4.017-2.878,7.673-2.878s5.169,1.083,7.674,2.878c3.018,2.161,7.15,5.122,14.662,5.122s11.645-2.612,14.662-4.772
			c1.844-1.32,3.155-2.063,5.173-2.365l0.051,5.662C478.124,675.578,454.187,681.645,420.654,681.645z M483.043,649.643l0.041,4.538
			c-5.897,0.52-9.406,2.763-12.055,4.66c-2.505,1.795-4.018,2.529-7.674,2.529s-5.169-1.082-7.674-2.877
			c-3.018-2.162-7.15-5.121-14.662-5.121c-7.511,0-11.644,2.963-14.661,5.125c-2.505,1.795-4.017,2.883-7.673,2.883
			c-3.655,0-5.167-1.072-7.672-2.865c-3.017-2.162-7.149-5.102-14.659-5.102s-11.643,3.004-14.659,5.166
			c-2.505,1.795-4.017,2.965-7.672,2.965s-5.167-0.908-7.672-2.703c-2.15-1.541-4.874-3.305-8.976-4.194l0.016-4.877
			L483.043,649.643z"/>
		<path d="M444.242,579.549c0.684-0.092,1.41-1.188,1.779-1.984c0.357-0.775,0.223-1.762,0.406-2.635
			c0.807-4.936,6.496-10.139,12.611-10.764c2.934-0.303,3.139-3.305,0.338-3.742c-9.338,1.059-16.439,8.283-16.609,16.957
			C442.744,578.523,442.914,579.723,444.242,579.549z"/>
		<path d="M365.242,579.549c0.684-0.092,1.41-1.188,1.779-1.984c0.357-0.775,0.223-1.762,0.406-2.635
			c0.807-4.936,6.496-10.139,12.611-10.764c2.934-0.303,3.139-3.305,0.338-3.742c-9.338,1.059-16.439,8.283-16.609,16.957
			C363.744,578.523,363.914,579.723,365.242,579.549z"/>
	</g>
</g>
</svg>
